<?xml version="1.0" encoding="UTF-8"?><svg xmlns="http://www.w3.org/2000/svg" xmlns:xlink="http://www.w3.org/1999/xlink" fill-opacity="1" color-rendering="auto" color-interpolation="auto" text-rendering="auto" stroke="black" stroke-linecap="square" width="330" stroke-miterlimit="10" shape-rendering="auto" stroke-opacity="1" fill="black" stroke-dasharray="none" font-weight="normal" stroke-width="1" height="259" font-family="'Dialog'" font-style="normal" stroke-linejoin="miter" font-size="12px" stroke-dashoffset="0" image-rendering="auto">
  <!--Generated by ySVG 2.6-->
  <defs id="genericDefs"/>
  <g>
    <defs id="defs1">
      <clipPath clipPathUnits="userSpaceOnUse" id="clipPath1">
        <path d="M0 0 L330 0 L330 259 L0 259 L0 0 Z"/>
      </clipPath>
      <clipPath clipPathUnits="userSpaceOnUse" id="clipPath2">
        <path d="M352 237 L682 237 L682 496 L352 496 L352 237 Z"/>
      </clipPath>
    </defs>
    <g fill="white" text-rendering="geometricPrecision" shape-rendering="geometricPrecision" transform="translate(-352,-237)" stroke="white">
      <rect x="352" width="330" height="259" y="237" clip-path="url(#clipPath2)" stroke="none"/>
    </g>
    <g fill="rgb(204,153,255)" text-rendering="geometricPrecision" shape-rendering="geometricPrecision" transform="matrix(1,0,0,1,-352,-237)" stroke="rgb(204,153,255)">
      <rect x="367.6416" y="252" clip-path="url(#clipPath2)" width="108.7168" rx="4" ry="4" height="30" stroke="none"/>
    </g>
    <g stroke-linecap="butt" transform="matrix(1,0,0,1,-352,-237)" text-rendering="geometricPrecision" shape-rendering="geometricPrecision" stroke-dasharray="12,4" stroke-width="2" stroke-miterlimit="1.45">
      <rect x="367.6416" y="252" clip-path="url(#clipPath2)" fill="none" width="108.7168" rx="4" ry="4" height="30"/>
      <text x="374.6416" y="271.5352" clip-path="url(#clipPath2)" font-family="sans-serif" stroke-dasharray="none" stroke="none" stroke-width="1" xml:space="preserve">AgeCategory.txt</text>
    </g>
    <g fill="rgb(255,204,0)" text-rendering="geometricPrecision" shape-rendering="geometricPrecision" transform="matrix(1,0,0,1,-352,-237)" stroke="rgb(255,204,0)">
      <rect x="383.6494" y="356" clip-path="url(#clipPath2)" width="76.7012" rx="4" ry="4" height="30" stroke="none"/>
    </g>
    <g text-rendering="geometricPrecision" stroke-miterlimit="1.45" stroke-width="2" shape-rendering="geometricPrecision" transform="matrix(1,0,0,1,-352,-237)" stroke-linecap="butt">
      <rect x="383.6494" y="356" clip-path="url(#clipPath2)" fill="none" width="76.7012" rx="4" ry="4" height="30"/>
      <text x="390.6494" y="375.5352" clip-path="url(#clipPath2)" font-family="sans-serif" stroke="none" stroke-width="1" xml:space="preserve">AgeRecord</text>
    </g>
    <g fill="rgb(255,255,153)" text-rendering="geometricPrecision" shape-rendering="geometricPrecision" transform="matrix(1,0,0,1,-352,-237)" stroke="rgb(255,255,153)">
      <ellipse rx="39.4521" ry="15" clip-path="url(#clipPath2)" cx="422" cy="466" stroke="none"/>
    </g>
    <g text-rendering="geometricPrecision" stroke-miterlimit="1.45" stroke-width="2" shape-rendering="geometricPrecision" transform="matrix(1,0,0,1,-352,-237)" stroke-linecap="butt">
      <ellipse rx="39.4521" fill="none" ry="15" clip-path="url(#clipPath2)" cx="422" cy="466"/>
      <text x="389.5479" y="470.5352" clip-path="url(#clipPath2)" font-family="sans-serif" stroke="none" stroke-width="1" xml:space="preserve">xsd:double</text>
    </g>
    <g fill="rgb(204,255,255)" text-rendering="geometricPrecision" shape-rendering="geometricPrecision" transform="matrix(1,0,0,1,-352,-237)" stroke="rgb(204,255,255)">
      <rect x="573.3262" y="252" clip-path="url(#clipPath2)" width="48.3828" rx="4" ry="4" height="30" stroke="none"/>
    </g>
    <g stroke-linecap="butt" transform="matrix(1,0,0,1,-352,-237)" text-rendering="geometricPrecision" shape-rendering="geometricPrecision" stroke-dasharray="12,4" stroke-width="2" stroke-miterlimit="1.45">
      <rect x="573.3262" y="252" clip-path="url(#clipPath2)" fill="none" width="48.3828" rx="4" ry="4" height="30"/>
      <text x="580.3262" y="271.5352" clip-path="url(#clipPath2)" font-family="sans-serif" stroke-dasharray="none" stroke="none" stroke-width="1" xml:space="preserve">Agent</text>
    </g>
    <g fill="rgb(204,255,255)" text-rendering="geometricPrecision" shape-rendering="geometricPrecision" transform="matrix(1,0,0,1,-352,-237)" stroke="rgb(204,255,255)">
      <rect x="550.8086" y="356" clip-path="url(#clipPath2)" width="93.418" rx="4" ry="4" height="30" stroke="none"/>
    </g>
    <g stroke-linecap="butt" transform="matrix(1,0,0,1,-352,-237)" text-rendering="geometricPrecision" shape-rendering="geometricPrecision" stroke-dasharray="12,4" stroke-width="2" stroke-miterlimit="1.45">
      <rect x="550.8086" y="356" clip-path="url(#clipPath2)" fill="none" width="93.418" rx="4" ry="4" height="30"/>
      <text x="557.8086" y="375.5352" clip-path="url(#clipPath2)" font-family="sans-serif" stroke-dasharray="none" stroke="none" stroke-width="1" xml:space="preserve">PersonRecord</text>
    </g>
    <g fill="rgb(204,255,255)" text-rendering="geometricPrecision" shape-rendering="geometricPrecision" transform="matrix(1,0,0,1,-352,-237)" stroke="rgb(204,255,255)">
      <rect x="528.2676" y="451" clip-path="url(#clipPath2)" width="138.5" rx="4" ry="4" height="30" stroke="none"/>
    </g>
    <g stroke-linecap="butt" transform="matrix(1,0,0,1,-352,-237)" text-rendering="geometricPrecision" shape-rendering="geometricPrecision" stroke-dasharray="12,4" stroke-width="2" stroke-miterlimit="1.45">
      <rect x="528.2676" y="451" clip-path="url(#clipPath2)" fill="none" width="138.5" rx="4" ry="4" height="30"/>
      <text x="535.2676" y="470.5352" clip-path="url(#clipPath2)" font-family="sans-serif" stroke-dasharray="none" stroke="none" stroke-width="1" xml:space="preserve">EntityWithProvenance</text>
      <path fill="none" stroke-dasharray="none" d="M422 355.9941 L422 289.9917" stroke-width="1" clip-path="url(#clipPath2)"/>
      <path stroke-dasharray="none" d="M422 281.9917 L417 293.9917 L422 290.9917 L427 293.9917 Z" stroke-width="1" clip-path="url(#clipPath2)" stroke="none"/>
    </g>
    <g stroke-linecap="butt" transform="matrix(1,0,0,1,-352,-237)" fill="white" text-rendering="geometricPrecision" shape-rendering="geometricPrecision" stroke="white" stroke-miterlimit="1.45">
      <rect x="372.6123" width="98.7754" height="18.1328" y="309.9336" clip-path="url(#clipPath2)" stroke="none"/>
      <text x="374.6123" y="323.5352" clip-path="url(#clipPath2)" fill="black" font-family="sans-serif" stroke="none" xml:space="preserve">hasAgeCategory</text>
      <path fill="none" d="M422 385.9829 L422 443" clip-path="url(#clipPath2)" stroke="black"/>
      <path fill="black" d="M422 451 L427 439 L422 442 L417 439 Z" clip-path="url(#clipPath2)" stroke="none"/>
      <rect x="382.6436" width="78.7129" height="18.1328" y="409.4336" clip-path="url(#clipPath2)" stroke="none"/>
      <text x="384.6436" y="423.0352" clip-path="url(#clipPath2)" fill="black" font-family="sans-serif" stroke="none" xml:space="preserve">hasAgeValue</text>
      <path fill="none" d="M460.3516 371 L535.8021 371" clip-path="url(#clipPath2)" stroke="black"/>
      <path d="M550.8021 371 L534.8021 365 L534.8021 377 Z" clip-path="url(#clipPath2)" stroke="none"/>
      <path fill="none" d="M550.8021 371 L534.8021 365 L534.8021 377 Z" clip-path="url(#clipPath2)" stroke="black"/>
      <path fill="none" d="M597.5176 282.0059 L597.5176 348.0083" clip-path="url(#clipPath2)" stroke="black"/>
      <path fill="black" d="M597.5176 356.0083 L602.5176 344.0083 L597.5176 347.0083 L592.5176 344.0083 Z" clip-path="url(#clipPath2)" stroke="none"/>
      <rect x="545.7129" width="103.6094" height="18.1328" y="309.9336" clip-path="url(#clipPath2)" stroke="none"/>
      <text x="547.7129" y="323.5352" clip-path="url(#clipPath2)" fill="black" font-family="sans-serif" stroke="none" xml:space="preserve">hasPersonRecord</text>
      <path fill="none" d="M597.5176 385.9829 L597.5176 436.0359" clip-path="url(#clipPath2)" stroke="black"/>
      <path d="M597.5176 451.0359 L603.5176 435.0359 L591.5176 435.0359 Z" clip-path="url(#clipPath2)" stroke="none"/>
      <path fill="none" d="M597.5176 451.0359 L603.5176 435.0359 L591.5176 435.0359 Z" clip-path="url(#clipPath2)" stroke="black"/>
    </g>
  </g>
</svg>
